<?xml version="1.0" standalone="no"?><!DOCTYPE svg PUBLIC "-//W3C//DTD SVG 1.1//EN" "http://www.w3.org/Graphics/SVG/1.1/DTD/svg11.dtd"><svg class="icon" width="200px" height="200.00px" viewBox="0 0 1024 1024" version="1.1" xmlns="http://www.w3.org/2000/svg"><path d="M511.28 512.72m-448.47 0a448.47 448.47 0 1 0 896.94 0 448.47 448.47 0 1 0-896.94 0Z" fill="#F9CD98" /><path d="M246.23 483.37s3.25-81.77 11.86-140.08c8.61-58.3 32.87-156.91 32.87-156.91l93.75 162.65-138.48 134.34z" fill="#FFB761" /><path d="M266.44 464.2s1.85-46.56 6.75-79.76 18.72-89.34 18.72-89.34l53.38 92.61-78.85 76.49z" fill="#FFEBCC" /><path d="M775.88 483.37s-3.25-81.77-11.86-140.08-32.87-156.91-32.87-156.91L637.4 349.03l138.48 134.34z" fill="#FFB761" /><path d="M755.67 464.2s-1.85-46.56-6.75-79.76-18.72-89.34-18.72-89.34l-53.38 92.61 78.85 76.49z" fill="#FFEBCC" /><path d="M840.88 653.81c32.87 4.7 46.31-1.33 35.22-5.79-15.07-6.05-22.7-3.87-36.39-18.63-14.87-16.02-40.79-77.34-40.79-77.34l-0.02-0.01c-24.85-113.07-112.05-216.63-249.66-232.42-0.44-4.26 0.35-9.57 2.5-16.3 5.36-16.71-3.18-9.64-18.52 6.78-3.13 3.35-5.54 5.82-7.37 7.64-2.29-0.11-4.59-0.19-6.9-0.25 0.33-4.15 2.26-11.5 8.4-24.48 12.95-27.39-3.78-15.55-16.96-0.26-5.98 6.94-24.1 18.51-37.54 26.6-138.73 14.95-216.41 108.27-251.99 232.69l-0.02 0.01s-25.92 61.31-40.79 77.34c-13.7 14.76-21.32 12.57-36.39 18.63-11.09 4.46 2.35 10.48 35.22 5.79 32.87-4.7 9.12 17.75 4.3 22.3-7.67 7.25-21.48 19.08-31.3 24.65-16.15 9.15-1.77 11.57 1.17 11.74 10.25 0.6 46.48-8.74 41.09 0-15.75 25.51-34.7 79.95-34.78 80.2 82.15 103.29 208.91 169.5 351.14 169.5 141.51 0 268.23-66.22 350.43-168.59l-0.52-0.89s-19-54.64-34.79-80.21c-5.4-8.74 30.83 0.6 41.09 0 2.94-0.17 17.32-2.59 1.17-11.74-9.82-5.57-23.63-17.4-31.3-24.65-4.82-4.56-28.57-27.01 4.3-22.31z" fill="#FBF5EF" /><path d="M276.5 601.01a234.78 170.53 0 1 0 469.56 0 234.78 170.53 0 1 0-469.56 0Z" fill="#FFEBCC" /><path d="M427.13 623.42a84.15 64.29 0 1 0 168.3 0 84.15 64.29 0 1 0-168.3 0Z" fill="#FFD69F" /><path d="M378.18 562.67m-51.57 0a51.57 51.57 0 1 0 103.14 0 51.57 51.57 0 1 0-103.14 0Z" fill="#FFFFFF" /><path d="M378.18 562.67m-35.75 0a35.75 35.75 0 1 0 71.5 0 35.75 35.75 0 1 0-71.5 0Z" fill="#1F98EA" /><path d="M390.47 548.93m-12.29 0a12.29 12.29 0 1 0 24.58 0 12.29 12.29 0 1 0-24.58 0Z" fill="#FFFFFF" /><path d="M644 562.67m-51.57 0a51.57 51.57 0 1 0 103.14 0 51.57 51.57 0 1 0-103.14 0Z" fill="#FFFFFF" /><path d="M644 562.67m-35.75 0a35.75 35.75 0 1 0 71.5 0 35.75 35.75 0 1 0-71.5 0Z" fill="#1F98EA" /><path d="M658.39 548.93m-12.29 0a12.29 12.29 0 1 0 24.58 0 12.29 12.29 0 1 0-24.58 0Z" fill="#FFFFFF" /><path d="M482.57 635.12c0.01-8.26 55.69-6.98 55.86-0.01 0.32 13.04-18.55 31.5-28.31 31.54-9.71 0.05-27.56-17.25-27.55-31.53z" fill="#371E19" /><path d="M479.84 726.99l-2.23-2.01 31-34.4v-26.17h3v27.32z" fill="#371E19" /><path d="M540.78 726.99l-32.17-35.26 0.39-27.34 3 0.04-0.38 26.15L543 724.97z" fill="#371E19" /></svg>