<?xml version="1.0" standalone="no"?><!DOCTYPE svg PUBLIC "-//W3C//DTD SVG 1.1//EN" "http://www.w3.org/Graphics/SVG/1.1/DTD/svg11.dtd"><svg class="icon" width="200px" height="200.00px" viewBox="0 0 1024 1024" version="1.1" xmlns="http://www.w3.org/2000/svg"><path d="M2.27555555 511.88622222c0 281.48622222 227.89688889 509.38311111 509.38311112 509.38311111s509.38311111-227.89688889 509.38311111-509.38311111S793.14488889 2.50311111 511.65866667 2.50311111 2.27555555 230.4 2.27555555 511.88622222z" fill="#D0D1AA" /><path d="M395.60533333 299.57688889s-24.68977778-60.30222222-76.45866666-26.16888889-59.16444445 46.64888889-50.63111112 76.8 45.51111111 46.64888889 45.51111112 46.64888889l81.57866666-97.28z" fill="#090B12" /><path d="M367.84355555 318.80533333s-12.40177778-30.37866667-38.45688888-13.19822222-29.80977778 23.43822222-25.48622222 38.68444444c4.32355555 15.13244445 22.86933333 23.43822222 22.86933333 23.43822223l41.07377777-48.92444445z" fill="#F4BCB8" /><path d="M630.67022222 299.57688889s24.68977778-60.30222222 76.45866667-26.16888889 59.16444445 46.64888889 50.63111111 76.8-45.51111111 46.64888889-45.51111111 46.64888889l-81.57866667-97.28z" fill="#090B12" /><path d="M658.432 318.80533333s12.40177778-30.37866667 38.45688889-13.19822222 29.80977778 23.43822222 25.48622222 38.68444444c-4.32355555 15.13244445-22.86933333 23.43822222-22.86933333 23.43822223l-41.07377778-48.92444445z" fill="#F4BCB8" /><path d="M39.48088889 703.82933333l2.38933333 2.38933334zM41.87022222 706.21866667l-2.38933333-2.38933334z" fill="#E27135" /><path d="M651.03644445 849.57866667c-2.50311111-0.11377778-4.89244445-0.11377778-7.39555556-0.22755556-15.36 16.72533333-45.056 32.768-102.28622222 33.45066667-1.93422222 0.68266667-3.98222222 1.25155555-6.03022222 1.82044444-6.59911111 1.25155555-13.99466667-5.46133333-23.0968889-5.46133333s-17.06666667 6.71288889-23.77955555 4.89244444l-2.38933333-0.68266666c-59.27822222-0.45511111-89.65688889-16.95288889-105.35822222-34.01955556-1.82044445 0.11377778-3.64088889 0.11377778-5.46133334 0.22755556-38.11555555-84.30933333 85.33333333-174.64888889 85.33333334-174.64888889 0 12.51555555 52.56533333 18.54577778 52.56533333 18.54577777s52.56533333-6.03022222 52.56533333-18.54577777c0 0.11377778 123.44888889 90.33955555 85.33333334 174.64888889z" fill="#F7F7F7" /><path d="M807.70844445 806.22933333c-16.49777778 17.63555555-38.34311111 30.49244445-63.37422223 37.77422222-2.38933333 0.56888889-4.89244445 1.25155555-7.28177777 1.82044445-0.56888889 0-1.25155555 0-1.82044445 0.56888889-1.82044445 0.56888889-4.20977778 0.56888889-6.71288889 1.25155556h-1.25155556c-1.82044445 0-3.64088889 0.56888889-6.144 0.56888888-1.25155555 0-2.38933333 0-3.64088888 0.56888889-2.38933333 0-4.89244445 0.56888889-7.28177778 0.56888889-18.65955555 0.91022222-38.912 0.91022222-59.16444444 0.34133334 38.11555555-84.30933333-85.33333333-174.64888889-85.33333334-174.6488889 0 12.51555555-52.56533333 18.54577778-52.56533333 18.54577778s-52.56533333-6.03022222-52.56533333-18.54577778c0 0-123.44888889 90.22577778-85.33333334 174.6488889-21.39022222 0.68266667-42.89422222 0.79644445-62.23644444-0.22755556-11.60533333-0.56888889-23.09688889-2.38933333-34.13333334-5.46133334-12.51555555-3.41333333-24.23466667-8.41955555-34.92977778-14.7911111-10.69511111-6.37155555-20.25244445-14.22222222-28.44444444-22.98311112-29.24088889-31.63022222-65.19466667-83.51288889-63.94311111-144.95288888 0.56888889-17.06666667 3.98222222-34.70222222 11.264-52.7928889 7.28177778-18.09066667 18.31822222-36.52266667 34.47466667-55.06844444 2.38933333-3.072 4.89244445-5.46133333 7.28177778-8.53333333h1.59288888c22.98311111-27.98933333 43.46311111-57.57155555 60.416-88.51911111 37.20533333-68.49422222 103.53777778-171.008 165.31911112-171.008 6.94044445 0 13.76711111 1.25155555 20.48 4.096 15.81511111 6.71288889 32.88177778 10.35377778 50.51733333 11.60533333h17.63555555c8.53333333-0.56888889 17.18044445-1.82044445 25.71377778-3.75466667s16.95288889-4.55111111 24.80355556-7.85066666c66.33244445-27.42044445 143.81511111 90.79466667 185.79911111 166.912 17.06666667 31.06133333 38.11555555 60.98488889 60.64355555 88.51911111 2.38933333 3.072 4.89244445 5.46133333 7.28177778 8.53333333 33.45066667 37.77422222 45.62488889 74.41066667 46.76266667 107.86133334 1.93422222 61.55377778-34.58844445 113.32266667-63.82933333 144.95288888z" fill="#F4F2F4" /><path d="M317.09866667 626.80177778m-50.85866667 0a50.85866667 50.85866667 0 1 0 101.71733333 0 50.85866667 50.85866667 0 1 0-101.71733333 0Z" fill="#EDAEB8" /><path d="M709.17688889 626.80177778m-50.85866667 0a50.85866667 50.85866667 0 1 0 101.71733333 0 50.85866667 50.85866667 0 1 0-101.71733333 0Z" fill="#EDAEB8" /><path d="M397.42577778 442.02666667s58.02666667-4.66488889 63.26044444 48.01422222c-0.11377778 0.11377778-18.88711111-38.79822222-63.26044444-48.01422222zM628.84977778 442.02666667s-58.02666667-4.66488889-63.26044445 48.01422222c0.11377778 0.11377778 18.88711111-38.79822222 63.26044445-48.01422222z" fill="#E9E5EA" /><path d="M419.61244445 475.93244445c-6.144 2.048-11.71911111 5.46133333-16.61155556 9.78488888-10.01244445 8.87466667-32.42666667 29.35466667-48.01422222 48.128-20.48 24.80355555-69.17688889 47.44533333-64.96711112 60.87111112 4.20977778 13.42577778 36.18133333 57.91288889 82.03377778 36.18133333s52.56533333-34.47466667 66.67377778-65.76355556c14.10844445-31.28888889 26.624-69.40444445 43.23555556-70.99733333 15.24622222-1.36533333-23.89333333-31.40266667-62.35022222-18.20444444zM606.66311111 475.93244445c6.144 2.048 11.71911111 5.46133333 16.61155556 9.78488888 10.01244445 8.87466667 32.42666667 29.35466667 48.01422222 48.128 20.48 24.80355555 69.17688889 47.44533333 64.96711111 60.87111112s-36.18133333 57.91288889-82.03377778 36.18133333c-45.96622222-21.73155555-52.56533333-34.47466667-66.67377777-65.76355556-14.10844445-31.28888889-26.624-69.40444445-43.23555556-70.99733333-15.24622222-1.36533333 23.89333333-31.40266667 62.35022222-18.20444444z" fill="#090B12" /><path d="M558.53511111 659.11466667h-94.43555556v-67.92533334c0-10.80888889 20.13866667-19.56977778 45.056-19.56977778h4.20977778c25.03111111 0 45.056 8.76088889 45.056 19.56977778v67.92533334h0.11377778z" fill="#E9E5EA" /><path d="M565.70311111 675.04355555c0 12.51555555-52.56533333 18.54577778-52.56533333 18.54577778s-52.56533333-6.03022222-52.56533333-18.54577778 3.52711111-15.92888889 3.5271111-15.92888888h98.07644445s3.52711111 3.41333333 3.52711111 15.92888888z" fill="#090B12" /><path d="M472.63288889 769.47911111m-3.41333334 0a3.41333333 3.41333333 0 1 0 6.82666667 0 3.41333333 3.41333333 0 1 0-6.82666667 0Z" fill="#66676D" /><path d="M472.63288889 781.53955555m-3.41333334 0a3.41333333 3.41333333 0 1 0 6.82666667 0 3.41333333 3.41333333 0 1 0-6.82666667 0Z" fill="#66676D" /><path d="M459.20711111 770.95822222m-3.41333333 0a3.41333333 3.41333333 0 1 0 6.82666667 0 3.41333333 3.41333333 0 1 0-6.82666667 0Z" fill="#66676D" /><path d="M459.20711111 790.75555555m-3.41333333 0a3.41333333 3.41333333 0 1 0 6.82666667 0 3.41333333 3.41333333 0 1 0-6.82666667 0Z" fill="#A8AAB2" /><path d="M446.06956089 785.11764821a3.41333333 3.41333333 0 1 0 6.47920071-2.1501952 3.41333333 3.41333333 0 1 0-6.47920071 2.1501952Z" fill="#A8AAB2" /><path d="M439.23572736 775.44769536a3.41333333 3.41333333 0 1 0 6.47919957-2.1501952 3.41333333 3.41333333 0 1 0-6.47919957 2.1501952Z" fill="#A8AAB2" /><path d="M549.77422222 769.47911111m-3.41333333 0a3.41333333 3.41333333 0 1 0 6.82666666 0 3.41333333 3.41333333 0 1 0-6.82666666 0Z" fill="#66676D" /><path d="M549.77422222 781.53955555m-3.41333333 0a3.41333333 3.41333333 0 1 0 6.82666666 0 3.41333333 3.41333333 0 1 0-6.82666666 0Z" fill="#66676D" /><path d="M563.31377778 770.95822222m-3.41333333 0a3.41333333 3.41333333 0 1 0 6.82666666 0 3.41333333 3.41333333 0 1 0-6.82666666 0Z" fill="#66676D" /><path d="M563.31377778 790.75555555m-3.41333333 0a3.41333333 3.41333333 0 1 0 6.82666666 0 3.41333333 3.41333333 0 1 0-6.82666666 0Z" fill="#A8AAB2" /><path d="M572.34151197 787.30231467a3.41333333 3.41333333 0 1 0 2.15042048-6.47912562 3.41333333 3.41333333 0 1 0-2.15042048 6.47912562Z" fill="#A8AAB2" /><path d="M579.13214066 777.71843584a3.41333333 3.41333333 0 1 0 2.15042048-6.47912562 3.41333333 3.41333333 0 1 0-2.15042048 6.47912562Z" fill="#A8AAB2" /><path d="M576.05688889 825.11644445c-15.36 0.11377778-54.38577778-11.37777778-58.368-11.37777778-4.43733333 0-4.55111111-97.62133333-4.55111111-101.26222222 0 3.64088889-0.11377778 101.26222222-4.55111111 101.26222222-4.096 0-43.12177778 11.37777778-58.368 11.37777778-0.91022222 0-1.25155555 1.25155555-0.34133334 1.70666666 2.048 0.91022222 4.55111111 1.70666667 7.39555556 1.59288889 6.144-0.11377778 55.97866667 0 55.97866666 0s49.83466667-0.11377778 55.97866667 0c2.84444445 0 5.34755555-0.79644445 7.39555556-1.59288889 0.68266667-0.34133333 0.45511111-1.70666667-0.56888889-1.70666666z" fill="#A8AAB2" /><path d="M569.11644445 828.52977778h-111.95733334l-7.39555556-1.70666667 9.44355556 6.94044444h107.86133334l9.44355555-6.94044444z" fill="#090B12" /></svg>