<?xml version="1.0" standalone="no"?><!DOCTYPE svg PUBLIC "-//W3C//DTD SVG 1.1//EN" "http://www.w3.org/Graphics/SVG/1.1/DTD/svg11.dtd"><svg class="icon" width="200px" height="200.00px" viewBox="0 0 1024 1024" version="1.1" xmlns="http://www.w3.org/2000/svg"><path d="M511.33 512.21m-448.47 0a448.47 448.47 0 1 0 896.94 0 448.47 448.47 0 1 0-896.94 0Z" fill="#3FA8BA" /><path d="M237.2 481.85s3.25-81.77 11.86-140.08 32.87-156.91 32.87-156.91l93.75 162.65L237.2 481.85z" fill="#F4BD6C" /><path d="M257.42 462.69s1.85-46.56 6.75-79.76 18.72-89.34 18.72-89.34l53.38 92.61-78.85 76.49z" fill="#D37B4A" /><path d="M785.85 481.85s-3.25-81.77-11.86-140.08c-8.61-58.3-32.87-156.91-32.87-156.91l-93.75 162.65 138.48 134.34z" fill="#F4BD6C" /><path d="M765.64 462.69s-1.85-46.56-6.75-79.76-18.72-89.34-18.72-89.34l-53.38 92.61 78.85 76.49z" fill="#D37B4A" /><path d="M222.25 559.71a289.24 243.85 0 1 0 578.48 0 289.24 243.85 0 1 0-578.48 0Z" fill="#F4BD6C" /><path d="M499.39 316.08c-2.29 19.29-3.66 43.91-3.66 70.72 0 61.92 7.31 112.11 16.34 112.11s16.34-50.19 16.34-112.11c0-26.79-1.37-51.38-3.65-70.66-4.5-0.18-9.02-0.28-13.57-0.28-3.96 0-7.89 0.09-11.8 0.22zM430.73 350.41c0 61.92 7.31 112.11 16.34 112.11s16.34-50.19 16.34-112.11c0-10.8-0.22-21.25-0.64-31.13a333.845 333.845 0 0 0-31.62 6.05c-0.28 8.06-0.42 16.46-0.42 25.08zM560.72 351.55c0 61.92 7.31 112.11 16.34 112.11s16.34-50.19 16.34-112.11c0-8.87-0.15-17.51-0.44-25.79a332.253 332.253 0 0 0-31.56-6.23c-0.44 10.15-0.68 20.89-0.68 32.02z" fill="#D6712D" /><path d="M586.82 630.36c-26.05-19.04-30.35-44.72-43.84-64.96-12.34-18.5-27.26-18.14-29.72-17.94-2.46-0.2-17.38-0.56-29.72 17.94-13.5 20.24-21.72 43.44-47.76 62.48-26.05 19.04-115.66 78.11-108.2 120.02v0.02c49.99 34.76 114.06 55.63 183.91 55.63 71.75 0 137.38-22.03 187.93-58.5 6.56-39.4-86.55-95.65-112.6-114.69z" fill="#F6E7CA" /><path d="M379.16 561.15m-51.57 0a51.57 51.57 0 1 0 103.14 0 51.57 51.57 0 1 0-103.14 0Z" fill="#FFFFFF" /><path d="M379.16 561.15m-35.75 0a35.75 35.75 0 1 0 71.5 0 35.75 35.75 0 1 0-71.5 0Z" fill="#C5C535" /><path d="M391.45 547.42m-12.29 0a12.29 12.29 0 1 0 24.58 0 12.29 12.29 0 1 0-24.58 0Z" fill="#FFFFFF" /><path d="M644.97 561.15m-51.57 0a51.57 51.57 0 1 0 103.14 0 51.57 51.57 0 1 0-103.14 0Z" fill="#FFFFFF" /><path d="M644.97 561.15m-35.75 0a35.75 35.75 0 1 0 71.5 0 35.75 35.75 0 1 0-71.5 0Z" fill="#C5C535" /><path d="M659.36 547.42m-12.29 0a12.29 12.29 0 1 0 24.58 0 12.29 12.29 0 1 0-24.58 0Z" fill="#FFFFFF" /><path d="M483.54 633.61c0.01-8.26 55.69-6.98 55.86-0.01 0.32 13.04-18.55 31.5-28.31 31.54-9.71 0.04-27.56-17.26-27.55-31.53z" fill="#D08C7D" /><path d="M481.23 725.85l-3.07-2.77 30.86-34.23V662.9h4.13v27.54z" fill="#D08C7D" /><path d="M541.33 725.86l-32.32-35.43 0.4-27.56 4.13 0.06-0.37 25.92 31.22 34.22z" fill="#D08C7D" /><path d="M303.57 517.09c-12.86 2.92-26.13 15.47-40.57 29.75-11.28 11.16-27.2 30.11-38.2 47.16 3.87 23.15 11.57 45.27 22.59 65.85-0.76-22.07 1.18-56.13 16.99-80.29 7.35-11.24 17.02-23.95 39.19-44.04 18.81-17.01 5.15-19.6 0-18.43z" fill="#D6712D" /><path d="M225.83 599.67c0.51-18.12 3.41-40.32 12.91-57.08 5.58-9.85 12.91-21 29.74-38.61 14.27-14.94 3.91-17.2 0-16.17-9.76 2.56-19.83 13.57-30.78 26.09-4.07 4.65-8.94 10.85-13.82 17.69-1.26 9.23-1.93 18.62-1.93 28.13a206.55 206.55 0 0 0 3.88 39.95z" fill="#D6712D" /><path d="M797.7 593.16c-10.98-16.83-26.55-35.34-37.64-46.31-14.44-14.28-27.71-26.83-40.57-29.75-5.15-1.17-18.81 1.41 0 18.45 22.17 20.08 31.84 32.8 39.19 44.04 15.47 23.65 17.66 56.76 17.03 78.86 10.75-20.45 18.26-42.36 21.99-65.29z" fill="#D6712D" /><path d="M798.33 530.38c-4.59-6.36-9.13-12.11-12.96-16.49-10.96-12.52-21.03-23.52-30.78-26.09-3.91-1.03-14.27 1.24 0 16.17 16.83 17.61 24.16 28.75 29.74 38.61 8.97 15.84 12.05 36.52 12.8 54.04 2.17-12.04 3.3-24.37 3.3-36.92-0.01-9.92-0.73-19.7-2.1-29.32z" fill="#D6712D" /></svg>