<?xml version="1.0" standalone="no"?><!DOCTYPE svg PUBLIC "-//W3C//DTD SVG 1.1//EN" "http://www.w3.org/Graphics/SVG/1.1/DTD/svg11.dtd"><svg class="icon" width="200px" height="200.00px" viewBox="0 0 1024 1024" version="1.1" xmlns="http://www.w3.org/2000/svg"><path d="M511 512m-448.47 0a448.47 448.47 0 1 0 896.94 0 448.47 448.47 0 1 0-896.94 0Z" fill="#BC1136" /><path d="M236.87 481.64s3.25-81.77 11.86-140.08 32.87-156.91 32.87-156.91l93.75 162.65-138.48 134.34z" fill="#3A3938" /><path d="M257.08 462.48s1.85-46.56 6.75-79.76 18.72-89.34 18.72-89.34l53.38 92.61-78.85 76.49z" fill="#F8C8A4" /><path d="M785.52 481.64s-3.25-81.77-11.86-140.08-32.87-156.91-32.87-156.91L647.05 347.3l138.47 134.34z" fill="#3A3938" /><path d="M765.31 462.48s-1.85-46.56-6.75-79.76-18.72-89.34-18.72-89.34l-53.38 92.61 78.85 76.49z" fill="#F8C8A4" /><path d="M221.92 559.5a289.24 243.85 0 1 0 578.48 0 289.24 243.85 0 1 0-578.48 0Z" fill="#3A3938" /><path d="M511.16 803.35c84.88 0 161.22-30.82 214.13-79.92-0.12-0.33-0.25-0.67-0.39-0.99-8.6-19.3-24.16-29.85-39.57-45.39s-75.54-45.27-98.79-57.44c-23.24-12.17-40.87-29.69-43.22-47.95-2.35-18.26 1.96-31.99 7.01-61.42 5.06-29.43 0.55-66.93-11.2-90.63-9.42-19-22.31-21.9-27.04-22.3v-0.05s-0.33-0.02-0.92-0.01c-0.59-0.02-0.92 0.01-0.92 0.01v0.05c-4.74 0.4-17.62 3.3-27.04 22.3-11.75 23.69-16.25 61.2-11.2 90.63 5.06 29.43 9.36 43.16 7.01 61.42-2.35 18.26-19.98 35.78-43.22 47.95s-83.37 41.9-98.79 57.44-30.98 26.09-39.57 45.39c-0.15 0.33-0.28 0.66-0.39 0.99 52.89 49.09 129.23 79.92 214.11 79.92z" fill="#FBF5EF" /><path d="M378.82 560.95m-51.57 0a51.57 51.57 0 1 0 103.14 0 51.57 51.57 0 1 0-103.14 0Z" fill="#FFFFFF" /><path d="M378.82 560.95m-35.75 0a35.75 35.75 0 1 0 71.5 0 35.75 35.75 0 1 0-71.5 0Z" fill="#DEA614" /><path d="M391.11 547.21m-12.29 0a12.29 12.29 0 1 0 24.58 0 12.29 12.29 0 1 0-24.58 0Z" fill="#FFFFFF" /><path d="M644.64 560.95m-51.57 0a51.57 51.57 0 1 0 103.14 0 51.57 51.57 0 1 0-103.14 0Z" fill="#FFFFFF" /><path d="M644.64 560.95m-35.75 0a35.75 35.75 0 1 0 71.5 0 35.75 35.75 0 1 0-71.5 0Z" fill="#DEA614" /><path d="M659.03 547.21m-12.29 0a12.29 12.29 0 1 0 24.58 0 12.29 12.29 0 1 0-24.58 0Z" fill="#FFFFFF" /><path d="M483.21 633.4c0.01-8.26 55.69-6.98 55.86-0.01 0.32 13.04-18.55 31.5-28.31 31.54-9.71 0.04-27.56-17.25-27.55-31.53z" fill="#D08C7D" /><path d="M480.9 725.64l-3.07-2.76 30.86-34.24v-25.95h4.13v27.54z" fill="#D08C7D" /><path d="M541 725.65l-32.33-35.43 0.4-27.56 4.14 0.06-0.38 25.92 31.22 34.23z" fill="#D08C7D" /></svg>